<?xml version="1.0" encoding="utf-8"?>
<!-- Generator: Adobe Illustrator 15.0.0, SVG Export Plug-In . SVG Version: 6.00 Build 0)  -->
<!DOCTYPE svg PUBLIC "-//W3C//DTD SVG 1.1//EN" "http://www.w3.org/Graphics/SVG/1.1/DTD/svg11.dtd">
<svg version="1.1" id="レイヤー_1" xmlns="http://www.w3.org/2000/svg" xmlns:xlink="http://www.w3.org/1999/xlink" x="0px"
	 y="0px" width="240px" height="240px" viewBox="0 0 240 240" enable-background="new 0 0 240 240" xml:space="preserve">
<g>
	<path fill="#FFFFFF" d="M226.846,124.916c-5.75-7.467-13.604-14.021-23.011-19.591v-4.045l-0.224-0.788
		c-7.248-25.972-19.439-41.587-30.037-50.526c-10.592-8.957-19.444-11.282-20.092-11.443L151.402,38L46.879,87.511
		c-7.938,3.764-13.236,11.361-14.196,19.958c-8.601,5.564-15.737,12.013-20.894,19.289C6.228,134.596,2.993,143.499,3,152.861
		c-0.011,9.966,3.652,19.391,9.878,27.599c9.364,12.333,24.355,22.259,42.842,29.261c18.497,6.985,40.564,11.002,64.279,11.004
		c31.621-0.014,60.308-7.117,81.521-18.961c10.605-5.935,19.369-13.074,25.602-21.304c6.227-8.208,9.886-17.633,9.878-27.599
		C237.012,142.75,233.236,133.203,226.846,124.916z M44.435,122.029H191.88v14.345H44.435V122.029z M44.435,144.346H191.88v13.609
		c0,1.063-0.866,1.93-1.929,1.93H46.364c-1.062,0-1.929-0.867-1.929-1.93V144.346z M218.305,173.793
		c-7.561,10.036-20.836,19.148-37.934,25.586c-17.083,6.46-37.913,10.296-60.372,10.292c-29.945,0.015-56.996-6.837-76.126-17.554
		c-9.569-5.348-17.13-11.639-22.179-18.324c-5.056-6.712-7.629-13.682-7.64-20.93c0.007-6.815,2.285-13.377,6.759-19.721
		c2.936-4.156,6.916-8.147,11.667-11.897v36.71c0.003,7.669,6.215,13.876,13.884,13.884h143.587
		c7.669-0.007,13.88-6.214,13.884-13.884v-39.492c5.845,4.077,10.666,8.533,14.243,13.189c5.208,6.793,7.855,13.861,7.867,21.209
		C225.936,160.111,223.361,167.081,218.305,173.793z"/>
</g>
</svg>
