<?xml version="1.0" encoding="utf-8"?>
<!-- Generator: Adobe Illustrator 15.0.0, SVG Export Plug-In . SVG Version: 6.00 Build 0)  -->
<!DOCTYPE svg PUBLIC "-//W3C//DTD SVG 1.1//EN" "http://www.w3.org/Graphics/SVG/1.1/DTD/svg11.dtd">
<svg version="1.1" id="_x31_0" xmlns="http://www.w3.org/2000/svg" xmlns:xlink="http://www.w3.org/1999/xlink" x="0px" y="0px"
	 width="595.281px" height="595.281px" viewBox="0 123.305 595.281 595.281" enable-background="new 0 123.305 595.281 595.281"
	 xml:space="preserve">
<g>
	<path fill="#7FA862" d="M297.64,123.305C133.26,123.305,0,256.561,0,420.945s133.26,297.642,297.64,297.642
		s297.641-133.258,297.641-297.642S462.021,123.305,297.64,123.305z M297.64,644.176c-123.087,0-223.23-100.145-223.23-223.23
		s100.143-223.229,223.23-223.229c123.087,0,223.23,100.144,223.23,223.229S420.728,644.176,297.64,644.176z"/>
	<path fill="#7FA862" d="M297.64,242.632c-14.015,0-25.207,5.241-33.254,15.582c-7.712,9.909-11.617,23.948-11.617,41.724
		c0,3.969,0.908,12.357,2.788,25.646c1.807,12.916,4.505,29.258,8.238,49.976c3.307,17.871,6.142,35.034,8.42,51.003
		c2.316,16.236,4.632,32.972,6.94,49.994c0.444,4.541,2.361,8.651,5.704,12.229c3.343,3.547,7.158,5.703,11.364,6.408
		c0.872,0.146,1.735,0.214,2.586,0.214c3.671,0,7.142-1.305,10.302-3.874c3.778-3.069,6.221-8.171,7.502-15.833
		c2.309-18.553,4.461-35.452,6.449-50.698c1.971-15.091,4.633-31.729,7.922-49.499c3.649-20.928,6.485-37.7,8.475-50.325
		c2.08-13.207,3.053-21.229,3.053-25.242c0-17.763-3.905-31.801-11.616-41.724C322.847,247.873,311.656,242.632,297.64,242.632z"/>
	<path fill="#7FA862" d="M297.676,523.077c-10.636,0-19.684,3.732-26.887,11.095c-7.157,7.325-10.782,16.414-10.782,26.995
		c0,10.563,3.542,19.629,10.527,26.949c7.057,7.396,16.041,11.142,26.714,11.142c10.646,0,19.827-3.874,27.296-11.519
		c7.447-7.609,11.217-16.549,11.217-26.572c0-10.608-3.715-19.712-11.045-27.041S308.285,523.077,297.676,523.077z"/>
</g>
</svg>
